#!OML:ASF F:\VICON\USERDATA\INSTALL\rory3\rory3.ASF
:FULLY-SPECIFIED
:DEGREES
90
root 0.49155827883352476 17.69993010853611 41.84276204780017 -3.7459901819947676 -4.707463242895141 -3.0622299092538072
lfemur -22.19118378889867 -3.187037009711832 -18.78933568788179
ltibia 29.54573984635373
lfoot -4.1967291456280975 -4.0857543900170965
ltoes -2.034848098905834
rfemur 2.1560431338235215 2.083130803449119 25.757253365926637
rtibia 60.290600612247935
rfoot 14.303090014665758 -1.1006138843474194
rtoes 8.853898400346996
lowerback 9.161109367064459 2.3902055185913023 2.823238402115928
upperback 0.16468426851227946 3.564215689722052 0.7318510573363826
thorax -4.9838881310761405 1.6891348856311015 -1.4523967761090764
lowerneck -15.662459552278964 -3.37694709134373 -2.0692107490520937
upperneck 20.103005823915247 -4.475973370431223 1.2902965866929683
head 8.930864832747856 -2.113445504115947 0.23297423748882248
lclavicle -1.7797860756670292e-15 -1.4440640220081658e-15
lhumerus -40.30740843369142 16.292543856321473 75.49164571253404
lradius 13.813121719601689
lwrist -0.4562263298271745
lhand -28.956755881489105 21.178340880288438
lfingers 7.125020000000054
lthumb -2.309441084780302 51.1270441485723
rclavicle -1.7797860756670292e-15 -1.4440640220081658e-15
rhumerus -25.050788489085768 -15.98374003505162 -81.85388400187391
rradius 31.28273012441597
rwrist 0.5926204741364378
rhand -17.685678182803464 30.07828046506664
rfingers 7.125020000000054
rthumb 8.57398111251314 -6.226696173097328
91
root 0.5098487968317647 17.765698443696724 42.674075317324515 -4.258706480123538 -4.765183729718995 -1.9032289766267683
lfemur -19.06613460168083 -3.237730282831864 -20.51432955756263
ltibia 30.335989592126605
lfoot -6.220551766489201 -2.8080438397141854
ltoes -0.8942768684332076
rfemur -3.2043097805621628 0.794040564568455 24.006810549297832
rtibia 70.54540434323808
rfoot 16.142217558755664 -3.375471798928121
rtoes 13.669959632894798
lowerback 9.592278609221097 2.2590604605686875 1.8641518162979118
upperback 0.28514470928318275 3.285415237908932 0.5712071281951225
thorax -5.089390474029201 1.569511872667304 -0.9744317760786595
lowerneck -15.644326023063313 -3.181110223641787 -2.1164941448238084
upperneck 20.155187186647474 -4.178304186740037 1.2664604144195417
head 8.941438596449053 -1.9825765529656214 0.26350149552336033
lclavicle -1.4554752930806306e-15 -1.1929492431367274e-15
lhumerus -39.3630919510966 15.043744857537094 76.29563520853856
lradius 15.136032176167653
lwrist 1.1975532733002296
lhand -29.849943671959597 20.077695019944954
lfingers 7.125020000000055
lthumb -3.1720256058251417 50.02504717432182
rclavicle -1.4554752930806306e-15 -1.1929492431367274e-15
rhumerus -25.647066511103368 -16.743050492911674 -81.53279744872219
rradius 30.82621859450828
rwrist 2.2773006450979008
rhand -17.541253499499547 30.160425026622818
rfingers 7.125020000000055
rthumb 8.713422659249252 -6.386206513281824
92
root 0.5039581225677126 17.800629577973286 42.9677194896707 -4.751301123032439 -4.767045321799591 -1.1436175820039356
lfemur -16.455416763266037 -3.5766669071407398 -22.059856312766073
ltibia 29.489623537757698
lfoot -8.776452152621234 -1.6198386184805855
ltoes -0.5606800467000435
rfemur -9.196997744840623 -0.6328504248887192 22.686549732050466
rtibia 77.58976484521479
rfoot 12.611316081854726 -5.687586213992031
rtoes 14.983436394666093
lowerback 9.892200092810924 1.9562092055139546 0.964543345331419
upperback 0.39849827219165107 2.7818549632721816 0.48249931711853455
thorax -5.204057444774705 1.342940150796359 -0.5473650830009361
lowerneck -15.650188640731365 -3.0011914456199404 -2.2185871252311724
upperneck 20.071062822963558 -3.8952302743229383 1.1661977967244588
head 8.907264763577267 -1.8603396609280884 0.2797882825513739
lclavicle -1.8203210687170457e-15 -1.4754503772854423e-15
lhumerus -38.37411090442346 13.232425406626131 76.95192740769026
lradius 15.107290914716849
lwrist 1.972086539845126
lhand -30.710263115653287 18.5417357980959
lfingers 7.125020000000054
lthumb -4.002880229216265 48.49008058736671
rclavicle -1.8203210687170457e-15 -1.4754503772854423e-15
rhumerus -26.460339712308535 -17.907344579987146 -81.59438266099437
rradius 29.11002286160138
rwrist 3.423022067096726
rhand -17.477725545498885 29.9911664372051
rfingers 7.125020000000054
rthumb 8.774785884643713 -6.8102452069197374
93
root 0.5270734444702381 17.83045692505342 44.25588409400343 -4.981828831595596 -4.335103783347632 -0.44140667838026415
lfemur -13.0985392481214 -3.8260865103369177 -23.057517584273178
ltibia 29.78898221127178
lfoot -10.660421087223973 -0.2476667717093317
ltoes -0.19863901055933653
rfemur -14.246273404228885 -1.7932054540882336 22.173615010170735
rtibia 82.49602331443589
rfoot 7.042370438643879 -6.865726174296749
rtoes 14.342620748655689
lowerback 10.259755975443412 1.5974447039261288 0.3582366318466502
upperback 0.5457534526147363 2.2305365853293924 0.5302099098196161
thorax -5.188189715568983 1.0875768879926015 0.031518688904501935
lowerneck -15.525192683311676 -2.8073190188994133 -2.3494593472462624
upperneck 20.253281928457994 -3.580930253483289 1.1865170926272677
head 8.946343420219193 -1.7274859903644177 0.33989917644186485
lclavicle -1.2705593959090504e-15 -1.0497683225948532e-15
lhumerus -36.28154214982478 11.438836764221103 77.9025596146135
lradius 16.82748405768443
lwrist 2.941141141091933
lhand -31.020891317335167 17.9697873092856
lfingers 7.125020000000056
lthumb -4.302902759207318 47.92103620670463
rclavicle -1.2705593959090504e-15 -1.0497683225948532e-15
rhumerus -26.78542977163322 -18.16231060862863 -81.20424089308864
rradius 29.408876174214306
rwrist 4.431812689097055
rhand -17.370440368054123 30.15620635749942
rfingers 7.125020000000056
rthumb 8.878358248985846 -6.81594414417263
94
root 0.5225925355768537 17.823609662199512 44.79063029867083 -5.150889335102009 -3.8658927971083745 0.016413754847131035
lfemur -10.673676835987955 -4.182117684945992 -24.143838731282756
ltibia 28.891830528737984
lfoot -13.013069716109039 0.5969316690408828
ltoes -0.3132423124604111
rfemur -19.60889101137478 -2.7975560948333897 21.730607016201226
rtibia 82.6390038674655
rfoot 0.6014983870963473 -7.327406172117693
rtoes 11.799611749240414
lowerback 10.468010600932471 1.123547998783019 -0.3301854060198006
upperback 0.6335067899556506 1.5149880042243575 0.5772040682209973
thorax -5.24350280750069 0.7560324819898747 0.5232947979776145
lowerneck -15.479452221646277 -2.7240682756428694 -2.5797793151101707
upperneck 20.21694919029197 -3.4179432673830696 1.1915576244671093
head 8.92821088431693 -1.6619483808886257 0.39977858207717115
lclavicle -1.6000881633201575e-15 -1.3049233985250205e-15
lhumerus -34.55701432083125 8.939251861618878 78.53533063692893
lradius 17.184166721175153
lwrist 3.1983641497810904
lhand -31.096650416506776 17.545637357302688
lfingers 7.125020000000055
lthumb -4.3760926177340576 47.50210353210324
rclavicle -1.6000881633201575e-15 -1.3049233985250205e-15
rhumerus -27.78658087243891 -18.59423602480633 -81.37170293726936
rradius 28.521816467099356
rwrist 4.132152802601172
rhand -17.359280764963934 29.993409061496667
rfingers 7.125020000000055
rthumb 8.889100117581844 -7.064963359932153
95
root 0.5486674851191619 17.81968726497233 46.307394587594295 -4.9453409352633155 -3.092780364753163 0.625340525458471
lfemur -7.454719821456076 -4.216771196629109 -24.84520445354547
ltibia 29.022242728272495
lfoot -14.502037672304798 1.5817703892721902
ltoes 0.20450047231172874
rfemur -23.476002559941445 -3.2284035776465516 21.661436799536528
rtibia 80.01772504962156
rfoot -3.94883378126951 -7.437705681916756
rtoes 9.137023033036826
lowerback 10.758665144096915 0.7119339060383325 -0.8736553332195618
upperback 0.7309396020059147 0.8972811739888169 0.6931054699848108
thorax -5.193958416175427 0.4670596697661914 1.1742481697077203
lowerneck -15.41145137359116 -2.6631740119876084 -2.834869696241348
upperneck 20.280191174962166 -3.2802911336054397 1.3764904049768203
head 8.948473343485903 -1.6070976591085122 0.5162562975373184
lclavicle -9.2793294523433e-16 -7.844716735877854e-16
lhumerus -31.94490919854444 6.552562299416623 79.37147336252731
lradius 19.762752816508424
lwrist 4.257779833387094
lhand -30.819175048139726 18.0282009368096
lfingers 7.125020000000057
lthumb -4.108154620283405 47.991458210479756
rclavicle -9.2793294523433e-16 -7.844716735877854e-16
rhumerus -28.308792262376702 -17.760745506982882 -81.11768148390878
rradius 29.862930840357297
rwrist 3.783751208954448
rhand -17.281089196356092 30.240154582068612
rfingers 7.125020000000057
rthumb 8.964537274503416 -6.843457646076717
96
root 0.5374666889608156 17.790236474197492 46.85508089685644 -4.638100946212254 -2.4864339079961653 1.0558842471284318
lfemur -5.053138927250005 -4.188142380276668 -25.73606967394798
ltibia 27.085805116928434
lfoot -16.275825463804992 1.9443618172164125
ltoes 0.36714464912193545
rfemur -27.163880964705676 -3.216060666743789 21.141427921858543
rtibia 72.12546289069722
rfoot -7.249653500953501 -8.436414609833202
rtoes 6.071747053366485
lowerback 10.798296112000564 0.27110217198929903 -1.6235097687962188
upperback 0.7524565066462237 0.2229287424494112 0.7535109028005554
thorax -5.207943949726873 0.15519892100822935 1.7072306597256741
lowerneck -15.518359816229987 -2.70205522060983 -3.1235744145321034
upperneck 19.986190990764506 -3.296562151370142 1.5299582415942712
head 8.878340274796026 -1.6145602093365126 0.6166498075047367
lclavicle -1.2668850844076456e-15 -1.046923298371774e-15
lhumerus -29.940664590174382 3.7210983812909033 79.67331195806558
lradius 20.684208255660977
lwrist 4.845177178640121
lhand -30.641642917343084 18.21759918264026
lfingers 7.125020000000056
lthumb -3.9367179922444038 48.18717212420938
rclavicle -1.2668850844076456e-15 -1.046923298371774e-15
rhumerus -29.450691986686664 -17.368904907330293 -81.44883290697452
rradius 29.42333466110602
rwrist 2.752845133749962
rhand -17.272820006917065 30.135031450985007
rfingers 7.125020000000056
rthumb 8.972478502464593 -6.923062531249639
97
root 0.5539555193586565 17.77851648899475 48.53199896795412 -3.9535351603269673 -1.6697047777251566 1.6728461508981871
lfemur -1.3680174351391585 -3.7521927072787777 -26.160548382058508
ltibia 25.532890556808418
lfoot -16.89893163917265 2.4170577480357096
ltoes 0.7409854975335426
rfemur -28.757222399957257 -2.174507243284481 20.58063211438429
rtibia 61.89415381476935
rfoot -8.17986556063559 -10.298771236026859
rtoes 4.1541580371893225
lowerback 10.800002845172518 -0.05623025432171003 -2.214837606408378
upperback 0.7813920388508881 -0.2796190699017981 0.8587942251572518
thorax -5.050301032420551 -0.07937002858503894 2.3707873749616697
lowerneck -15.571350813146463 -2.6991173993909974 -3.325808597105488
upperneck 19.90205650430466 -3.2664473002830814 1.8032104953024817
head 8.872636550665822 -1.5974351598594438 0.7419864756759638
lclavicle -4.978777627785039e-16 -4.514787115025777e-16
lhumerus -27.06512498288864 1.5063073458227842 80.06092337832153
lradius 23.673622070038675
lwrist 6.255915905463777
lhand -30.32472412919022 19.161206834431752
lfingers 7.125020000000058
lthumb -3.6306916637468243 49.13407294032458
rclavicle -4.978777627785039e-16 -4.514787115025777e-16
rhumerus -29.855434984062306 -16.226034893647277 -81.13853454926665
rradius 30.842849971253692
rwrist 2.581881446249956
rhand -17.14436133770427 30.445556952780066
rfingers 7.125020000000058
rthumb 9.096424556855133 -6.463893756275085
